<svg xmlns="http://www.w3.org/2000/svg" aria-hidden="true" style="width:0;height:0;position:absolute;overflow:hidden"><defs><symbol id="scroll-up-btn" viewBox="0 0 32 32"><path fill="#4f2ee8" style="fill:var(--color1,#4f2ee8)" opacity=".3" d="M32 16c0 8.837-7.163 16-16 16S0 24.837 0 16 7.163 0 16 0s16 7.163 16 16z"/><path fill="#4f2ee8" style="fill:var(--color1,#4f2ee8)" d="M29.5 16c0 7.456-6.044 13.5-13.5 13.5S2.5 23.456 2.5 16 8.544 2.5 16 2.5 29.5 8.544 29.5 16z"/><path fill="#fff" style="fill:var(--color2,#fff)" d="m11.688 17.35 4.2-4.213a.436.436 0 0 1 .163-.106.54.54 0 0 1 .183-.031h.004a.58.58 0 0 1 .188.031.43.43 0 0 1 .162.106l4.213 4.213c.116.116.175.262.175.438s-.063.325-.188.45a.598.598 0 0 1-.436.188h-.004a.598.598 0 0 1-.435-.187l-3.675-3.675-3.675 3.675c-.117.116-.26.175-.431.175s-.319-.063-.444-.188a.598.598 0 0 1-.188-.436v-.004c0-.171.072-.326.187-.435z"/></symbol><symbol id="icon-book-research-icon" viewBox="0 0 41 32"><path d="M3.305 20.212c.037-6.368.071-12.733.109-19.076 0-.422.302-.775.699-.857V.277c2.322-.484 5.96-.361 8.434.585 1.709.655 3.26 1.699 4.392 3.204 1.145-1.403 2.671-2.413 4.39-3.065 2.348-.89 5.88-1.105 8.428-.732a.88.88 0 0 1 .755.872h.002v6.685a11.533 11.533 0 0 0-1.625-.112l-.14.001V1.923c-2.04-.194-4.963.03-6.8.726-1.717.651-3.196 1.721-4.158 3.254v9.526a11.844 11.844 0 0 0 .146 8.667c.249.6.545 1.175.884 1.72-.476.16-.95.344-1.426.555a.878.878 0 0 1-.486.145h-.016.001a.886.886 0 0 1-.501-.145c-2.366-1.046-4.725-1.46-7.083-1.445-2.419.015-5.682.482-8.142 1.188a.882.882 0 0 1-1.167-.834V4.965c0-.487.395-.882.882-.882h.883v20.042c2.227-.575 5.284-.942 7.537-.956 2.08-.012 4.16.276 6.243.982a13.321 13.321 0 0 0-4.28-2.32c-1.94-.634-4.862-.844-7.009-.66a.882.882 0 0 1-.952-.958zM29.141 9.969a9.856 9.856 0 0 1 6.978 2.891 9.892 9.892 0 0 1 2.483 9.799 9.742 9.742 0 0 1-1.028 2.312l.024-.043 3.376 3.717a.475.475 0 0 1-.029.668l-2.807 2.562a.466.466 0 0 1-.665-.03l-3.208-3.572a9.818 9.818 0 0 1-5.124 1.434 9.852 9.852 0 0 1-6.978-2.89 9.869 9.869 0 0 1-2.118-3.14l-.024-.065c-1.53-3.684-.661-7.951 2.142-10.754a9.846 9.846 0 0 1 3.205-2.141 9.8 9.8 0 0 1 3.773-.751zm5.568 4.302a7.895 7.895 0 0 0-8.581-1.711c-5.253 2.174-6.46 8.947-2.557 12.847a7.905 7.905 0 0 0 8.583 1.712 7.876 7.876 0 0 0 4.861-7.281c0-1.068-.21-2.086-.593-3.011a7.95 7.95 0 0 0-1.713-2.556zM32.02 8.134V4.081h.882c.488 0 .882.395.882.882v3.809a11.936 11.936 0 0 0-1.764-.638zm-12.649 4.374a.63.63 0 0 1 .251-.745l.002-.002c.232-.149.48-.291.74-.428-.36.372-.691.764-.995 1.175zm.948-4.552a.633.633 0 0 1-.872-.192l-.002-.003a.632.632 0 0 1 .195-.873c.902-.572 2.058-1.074 3.223-1.45 1.24-.399 2.505-.659 3.502-.715a.632.632 0 0 1 .069 1.261c-.893.051-2.044.289-3.186.657-1.064.342-2.115.799-2.93 1.316zm-6.092 8.692a.632.632 0 0 1-.687 1.059c-.807-.524-1.867-.99-2.947-1.342-1.162-.379-2.337-.626-3.242-.677a.631.631 0 1 1 .069-1.261c1.015.056 2.307.325 3.564.734 1.174.384 2.341.897 3.244 1.486zm-.068-4.888a.631.631 0 0 1 .191.874l.002-.002a.632.632 0 0 1-.872.192c-.81-.516-1.864-.974-2.935-1.32-1.146-.369-2.301-.609-3.196-.66a.63.63 0 1 1 .069-1.261c.999.056 2.27.318 3.512.718 1.165.376 2.322.881 3.228 1.459zm-.015-4.872a.632.632 0 0 1 .194.876l.002-.003a.633.633 0 0 1-.873.195c-.816-.517-1.867-.974-2.93-1.316-1.142-.368-2.293-.607-3.186-.657a.631.631 0 1 1 .069-1.261c.998.056 2.263.316 3.502.715 1.165.376 2.321.878 3.223 1.45zm1.881 15.411V5.875c-.925-1.629-2.418-2.72-4.107-3.366-1.91-.732-4.88-.898-6.751-.631l-.1 17.475c2.042-.074 4.862.186 6.743.799a15.135 15.135 0 0 1 4.215 2.146z"/></symbol></defs></svg>