<svg xmlns="http://www.w3.org/2000/svg" aria-hidden="true" style="width:0;height:0;position:absolute;overflow:hidden"><defs><symbol id="scroll-up-btn" viewBox="0 0 32 32"><path fill="#4f2ee8" style="fill:var(--color1,#4f2ee8)" opacity=".3" d="M32 16c0 8.837-7.163 16-16 16S0 24.837 0 16 7.163 0 16 0s16 7.163 16 16z"/><path fill="#4f2ee8" style="fill:var(--color1,#4f2ee8)" d="M29.5 16c0 7.456-6.044 13.5-13.5 13.5S2.5 23.456 2.5 16 8.544 2.5 16 2.5 29.5 8.544 29.5 16z"/><path fill="#fff" style="fill:var(--color2,#fff)" d="m11.688 17.35 4.2-4.213a.436.436 0 0 1 .163-.106.54.54 0 0 1 .183-.031h.004a.58.58 0 0 1 .188.031.43.43 0 0 1 .162.106l4.213 4.213c.116.116.175.262.175.438s-.063.325-.188.45a.598.598 0 0 1-.436.188h-.004a.598.598 0 0 1-.435-.187l-3.675-3.675-3.675 3.675c-.117.116-.26.175-.431.175s-.319-.063-.444-.188a.598.598 0 0 1-.188-.436v-.004c0-.171.072-.326.187-.435z"/></symbol></defs></svg>