<!-- Generated by IcoMoon.io -->
<svg version="1.1" xmlns="http://www.w3.org/2000/svg" width="64" height="32" viewBox="0 0 64 32">
<title>rectangle-switch-ico</title>
<path d="M13.982 0.115c-2.392 0.314-5.086 1.341-6.995 2.669-3.478 2.416-5.749 5.843-6.691 10.094-0.334 1.509-0.334 4.734 0 6.243 1.446 6.525 6.114 11.174 12.632 12.587l1.099 0.238h35.946l1.099-0.238c6.515-1.411 11.192-6.070 12.627-12.579 0.336-1.522 0.336-4.738 0-6.259-1.107-5.021-4.144-8.968-8.624-11.206-1.132-0.566-2.449-1.038-3.827-1.349l-0.118-0.022-1.050-0.238-17.707-0.014c-9.738-0.008-18.014 0.026-18.39 0.075z"></path>
</svg>
