<!-- Generated by IcoMoon.io -->
<svg version="1.1" xmlns="http://www.w3.org/2000/svg" width="32" height="32" viewBox="0 0 32 32">
<title>round-switch-ico</title>
<path d="M13.68 2.512c-3.55 0.366-6.614 2.341-8.494 5.473-1.006 1.676-1.585 4.014-1.487 5.988 0.119 2.377 0.864 4.43 2.29 6.319 0.421 0.559 1.489 1.625 2.063 2.058 1.436 1.098 3.182 1.864 5.085 2.152l0.062 0.008c0.789 0.119 2.354 0.119 3.147 0 4.478-0.674 8.071-3.924 9.17-8.292 0.205-0.803 0.323-1.725 0.323-2.674 0-0.946-0.117-1.864-0.337-2.741l0.016 0.077c-0.871-3.397-3.217-6.117-6.297-7.482l-0.071-0.028c-1.727-0.741-3.662-1.045-5.472-0.858z"></path>
</svg>
